<svg width="144" height="28" viewBox="0 0 144 28" fill="none" xmlns="http://www.w3.org/2000/svg">
<path d="M9.85618 27.4559H4.49344V13.9444H0.84024V9.54535H4.4933V6.4151C4.4933 2.70574 6.10905 0.0454102 11.4573 0.0454102C12.5884 0.0454102 14.3643 0.275843 14.3643 0.275843V4.36062H12.499C10.5985 4.36062 9.85646 4.9449 9.85646 6.56023V9.54535H14.2931L13.898 13.9444H9.85632L9.85618 27.4559ZM22.1611 9.1938C22.083 9.1938 22.0026 9.19668 21.923 9.1987C16.9504 9.1987 14.6753 12.9791 14.6753 18.3455C14.6753 25.1057 17.6264 27.8114 21.9619 27.8114C24.4424 27.8114 26.0721 26.7561 27.0626 24.787V27.4578H32.1633V9.54722H27.0626V12.3016C26.2538 10.5295 24.5786 9.21481 22.1611 9.1938ZM23.4581 13.426C25.5466 13.426 26.8002 14.8984 26.8002 17.4028L26.805 19.9607C26.805 21.6487 25.7696 23.6234 23.4581 23.6234C19.9044 23.6234 19.9993 19.7452 19.9993 18.4535C19.9993 14.1085 21.8927 13.426 23.4581 13.426ZM34.2233 18.5034C34.2233 16.327 34.1202 9.20546 43.3004 9.20546C46.9855 9.20546 48.5242 10.3897 48.5242 10.3897L47.2875 14.2666C47.2875 14.2666 45.7507 13.4114 43.7483 13.4114C41.1835 13.4114 39.547 14.9141 39.547 17.558L39.5498 19.4538C39.5498 21.9943 41.1289 23.6902 43.7535 23.6902C45.5778 23.6902 47.2592 22.8269 47.2592 22.8269L48.4928 26.6228C48.4928 26.6228 47.0858 27.8145 43.3261 27.8145C34.5852 27.8145 34.2234 21.4251 34.2234 18.5034H34.2233ZM78.4317 9.1987C83.4044 9.1987 85.7154 12.9791 85.7154 18.3455C85.7154 25.1057 82.7642 27.8114 78.4287 27.8114C75.9482 27.8114 74.1145 26.7563 73.124 24.787V27.4578L68.0875 27.4558V0.58999L73.435 0.118625V12.059C74.2068 9.96997 76.7432 9.1987 78.4318 9.1987H78.4317ZM76.9325 13.426C74.8439 13.426 73.435 14.8984 73.435 17.4028L73.43 19.9607C73.4269 21.6487 74.4057 23.6234 76.9325 23.6234C80.4862 23.6234 80.3913 19.7452 80.3913 18.4535C80.3913 14.1085 78.498 13.426 76.9325 13.426ZM57.8026 9.21351C52.1625 9.21351 49.1849 12.3215 49.1849 17.8447V18.8708C49.1849 26.0394 53.3664 27.885 58.3515 27.885C63.1971 27.885 65.3904 26.5152 65.3904 26.5152L64.3897 22.8674C64.3897 22.8674 61.8097 23.9769 58.9927 23.9769C56.0723 23.9769 54.8163 23.2246 54.4944 20.388H65.8179V17.4616C65.8179 11.4704 62.4761 9.21337 57.8025 9.21337L57.8026 9.21351ZM57.9385 12.8662C59.8909 12.8662 61.1559 14.0762 61.0865 16.8824H54.5042C54.6183 13.9289 55.9826 12.8663 57.9385 12.8663V12.8662ZM96.3781 9.18892C90.5862 9.18892 87.537 12.4878 87.537 18.3995C87.537 26.5106 92.7931 27.8163 96.3878 27.8163C101.65 27.8163 105.151 24.9528 105.151 18.4731C105.151 11.7288 101.215 9.18892 96.3781 9.18892ZM96.3053 13.4407C98.8521 13.4407 99.8613 15.3671 99.8613 17.56V19.4453C99.8613 22.1018 98.4492 23.6383 96.2956 23.6383C94.2815 23.6383 92.866 22.201 92.866 19.4453V17.56C92.866 14.621 94.5503 13.4407 96.3053 13.4407ZM115.804 9.18892C110.012 9.18892 106.963 12.4878 106.963 18.3995C106.963 26.5106 112.219 27.8163 115.814 27.8163C121.076 27.8163 124.578 24.9528 124.578 18.4731C124.578 11.7288 120.641 9.18892 115.804 9.18892ZM115.732 13.4407C118.278 13.4407 119.287 15.3671 119.287 17.56V19.4453C119.287 22.1018 117.875 23.6383 115.722 23.6383C113.708 23.6383 112.292 22.201 112.292 19.4453V17.56C112.292 14.621 113.977 13.4407 115.732 13.4407ZM126.598 27.4559V0.58999L131.961 0.118625V18.1259L137.282 9.54535H142.946L137.395 18.4322L143.16 27.4559H137.48L131.961 18.694V27.4559H126.598Z" fill="#767494"/>
</svg>
