<svg width="117" height="40" viewBox="0 0 117 40" fill="none" xmlns="http://www.w3.org/2000/svg">
<path d="M14.5188 0.785767H15.5528C19.1424 0.864635 22.6735 2.32371 25.2096 4.90666C24.2732 5.8728 23.3172 6.7995 22.4003 7.76565C20.9762 6.46431 19.2594 5.45874 17.3866 5.10383C14.6164 4.51231 11.6315 5.04468 9.31001 6.64177C6.77388 8.31773 5.05711 11.157 4.68645 14.1934C4.27677 17.1905 5.11564 20.3452 7.047 22.6718C8.90032 24.9393 11.7291 26.3589 14.6554 26.4575C17.3866 26.6153 20.2349 25.7674 22.2248 23.8351C23.7854 22.4747 24.5073 20.4044 24.7414 18.3932C21.5029 18.3932 18.2645 18.4129 15.026 18.3932V14.3315H28.6626C29.3649 18.689 28.3505 23.5985 25.073 26.7138C22.888 28.9222 19.8642 30.2235 16.7818 30.4798C13.797 30.7756 10.7146 30.2038 8.06145 28.7447C4.88153 27.0293 2.34541 24.1309 1.09685 20.7198C-0.0736708 17.5848 -0.0931794 14.0357 0.999307 10.881C1.99425 8.00225 3.9061 5.45874 6.36419 3.68419C8.72474 1.92936 11.5925 0.963221 14.5188 0.785767Z" fill="#767494"/>
<path d="M92.749 1.81116H96.9238V29.9672C95.5387 29.9672 94.1341 29.9869 92.749 29.9475C92.7685 20.5819 92.749 11.1965 92.749 1.81116Z" fill="#767494"/>
<path d="M37.9481 11.5712C40.5232 11.0783 43.313 11.6304 45.4394 13.188C47.3708 14.5682 48.7169 16.7371 49.1266 19.1031C49.6533 21.8438 48.99 24.8408 47.2342 27.0096C45.3419 29.4348 42.24 30.7362 39.2162 30.539C36.4459 30.3812 33.7537 28.9813 32.115 26.6942C30.2617 24.1704 29.813 20.7002 30.8274 17.7426C31.8419 14.5682 34.7096 12.143 37.9481 11.5712ZM38.5334 15.3174C37.4799 15.5935 36.5044 16.2047 35.8021 17.0723C33.9098 19.3594 34.0268 23.0859 36.1143 25.2154C37.3043 26.4378 39.0991 27.0096 40.7573 26.6744C42.2985 26.3984 43.6446 25.3534 44.386 23.9732C45.6735 21.6269 45.3029 18.3933 43.3325 16.5596C42.0644 15.3766 40.2111 14.8837 38.5334 15.3174Z" fill="#767494"/>
<path d="M58.6257 11.5711C61.5715 10.9993 64.7904 11.8274 66.9949 13.9174C70.5845 17.1708 70.9747 23.2634 67.9118 27.0096C66.0585 29.3757 63.0542 30.677 60.0888 30.539C57.2601 30.4602 54.4703 29.0405 52.7926 26.6942C50.9002 24.1112 50.4906 20.5621 51.5635 17.5454C52.6365 14.4695 55.4458 12.1232 58.6257 11.5711ZM59.2109 15.3173C58.1575 15.5934 57.182 16.2046 56.4797 17.0525C54.6069 19.3002 54.6849 22.9676 56.6943 25.1168C57.8844 26.3984 59.7377 27.0294 61.4544 26.6745C62.9761 26.3787 64.3417 25.3534 65.0831 23.9732C66.3511 21.6071 65.9805 18.3735 63.9906 16.5398C62.7225 15.3568 60.8692 14.8836 59.2109 15.3173Z" fill="#767494"/>
<path d="M76.1663 12.7147C78.4098 11.2951 81.3947 10.9008 83.8137 12.1232C84.5746 12.4584 85.1988 13.0302 85.8036 13.602C85.8231 13.0696 85.8036 12.5176 85.8231 11.9655C87.1302 11.9852 88.4373 11.9655 89.7639 11.9852V29.3757C89.7444 31.9981 89.0811 34.7782 87.2082 36.6908C85.1598 38.8005 82.0189 39.4512 79.1902 39.0174C76.1663 38.5639 73.5326 36.3359 72.3621 33.5163C73.5326 32.9445 74.7617 32.491 75.9712 31.9587C76.654 33.5755 78.0392 34.9557 79.7754 35.2711C81.5117 35.5866 83.5211 35.1528 84.6526 33.6938C85.8621 32.1953 85.8621 30.1447 85.8036 28.311C84.9062 29.1983 83.8723 29.9869 82.6237 30.2827C79.912 31.0517 76.9272 30.1052 74.8397 28.2518C72.7328 26.3984 71.4842 23.5394 71.6013 20.7002C71.6598 17.4863 73.4546 14.3907 76.1663 12.7147ZM80.2046 15.2385C79.0146 15.4357 77.9026 16.1061 77.1417 17.0328C75.3079 19.2411 75.3079 22.7705 77.1613 24.9394C78.2147 26.221 79.912 26.9308 81.5507 26.7533C83.0919 26.5956 84.516 25.6097 85.2769 24.2493C86.5645 21.9423 86.3499 18.8073 84.6136 16.7962C83.5406 15.554 81.8238 14.9428 80.2046 15.2385Z" fill="#767494"/>
<path d="M101.934 13.7203C104.275 11.512 107.885 10.7627 110.889 11.926C113.737 13.0105 115.552 15.7512 116.468 18.5707C112.235 20.3452 108.021 22.1001 103.788 23.8746C104.373 24.9985 105.27 26.0238 106.48 26.4378C108.177 27.0491 110.206 26.8322 111.63 25.6886C112.196 25.2548 112.645 24.683 113.074 24.1309C114.147 24.8605 115.22 25.5703 116.293 26.2998C114.771 28.6067 112.216 30.2235 109.465 30.4799C106.421 30.8545 103.183 29.6715 101.213 27.266C97.9742 23.4803 98.2863 17.1314 101.934 13.7203ZM104.022 17.368C103.359 18.3341 103.085 19.5171 103.105 20.6804C105.934 19.4974 108.762 18.3144 111.591 17.1116C111.123 16.0075 109.992 15.3371 108.841 15.1596C106.987 14.8244 105.056 15.83 104.022 17.368Z" fill="#767494"/>
</svg>
