<svg width="262" height="36" viewBox="0 0 262 36" fill="none" xmlns="http://www.w3.org/2000/svg">
<path d="M52.9316 29.3372V27.1592C54.1762 29.2439 56.5409 29.7106 57.8789 29.7106C61.8615 29.7106 65.253 26.3191 65.253 21.3407C65.253 16.5802 62.2038 12.9398 57.7233 12.9398C56.1987 12.9398 54.4563 13.4687 53.3673 15.1178V7.09025H47.9533V29.3372H52.9316ZM53.2428 21.2785C53.2428 19.0383 54.6741 17.6692 56.5721 17.6692C58.3456 17.6692 59.808 19.0383 59.808 21.2785C59.808 23.5188 58.3456 24.9812 56.5721 24.9812C54.6741 24.9812 53.2428 23.5499 53.2428 21.2785Z" fill="#5D5A88"/>
<path d="M78.8674 13.0643C78.6185 12.9709 78.2762 12.9398 77.8717 12.9398C75.7559 12.9398 74.2002 14.091 73.3601 16.0513V13.3132H67.9773V29.3372H73.3912V23.4565C73.3912 20.0962 74.9158 18.0115 77.6539 18.0115C78.214 18.0115 78.6185 18.0737 78.8674 18.1982V13.0643Z" fill="#5D5A88"/>
<path d="M80.9518 29.3372H86.3658V13.3132H80.9518V29.3372ZM80.734 8.83266C80.734 10.4506 81.9786 11.633 83.6277 11.633C85.2768 11.633 86.5525 10.4506 86.5525 8.83266C86.5525 7.2147 85.2768 6.03235 83.6277 6.03235C81.9786 6.03235 80.734 7.2147 80.734 8.83266Z" fill="#5D5A88"/>
<path d="M93.7961 21.403L88.2888 29.3372H94.2939L96.9076 25.1056L99.5212 29.3372H105.526L100.019 21.403L105.651 13.3132H99.4901L96.9076 17.7626L94.325 13.3132H88.1643L93.7961 21.403Z" fill="#5D5A88"/>
<path d="M111.888 16.4557H113.941V22.8654C113.941 26.5991 116.057 28.6527 119.542 28.6527C121.129 28.6527 122.342 28.3104 123.182 27.9059V23.3321C122.529 23.7988 121.751 23.9233 121.098 23.9233C120.102 23.9233 119.355 23.3321 119.355 21.963V16.4557H122.747V12.2553H119.355V7.93034H114.097V12.2553H111.888V16.4557Z" fill="#8D8BA7"/>
<path d="M139.827 21.5585C139.982 21.0607 140.138 20.0962 140.138 19.2561C140.138 14.8689 137.026 11.8819 132.452 11.8819C127.723 11.8819 124.114 15.5534 124.114 20.2828C124.114 25.0123 127.63 28.6527 133.106 28.6527C135.813 28.6527 137.929 27.9682 140.044 26.0702L137.306 22.6476C136.528 23.3943 135.253 24.1411 133.51 24.1411C131.675 24.1411 129.932 23.3632 129.683 21.5585H139.827ZM132.328 16.1757C133.728 16.1757 134.817 17.0469 134.911 18.416V18.4471H129.59C129.683 16.9847 130.928 16.1757 132.328 16.1757Z" fill="#8D8BA7"/>
<path d="M142.799 12.2553V28.2793H148.213V19.8472C148.213 17.8559 149.24 16.6113 150.764 16.6113C152.382 16.6113 153.253 17.607 153.253 19.4739V28.2793H158.667V19.8472C158.667 17.8559 159.756 16.6113 161.219 16.6113C162.837 16.6113 163.708 17.607 163.708 19.4739V28.2793H169.122V18.5093C169.122 14.3711 166.819 11.8819 162.93 11.8819C160.223 11.8819 158.761 13.0954 157.672 14.4955C156.583 12.7842 154.84 11.8819 152.475 11.8819C150.577 11.8819 149.053 12.5353 147.964 14.1533V12.2553H142.799Z" fill="#8D8BA7"/>
<path d="M172.789 34.5022H178.203V26.7236C179.23 28.2171 181.035 28.6527 182.559 28.6527C187.04 28.6527 190.089 25.0123 190.089 20.2517C190.089 15.2734 186.604 11.8819 182.621 11.8819C181.315 11.8819 179.105 12.3486 177.768 14.4333V12.2553H172.789V34.5022ZM178.079 20.314C178.079 18.0426 179.51 16.6113 181.408 16.6113C183.181 16.6113 184.644 18.0737 184.644 20.314C184.644 22.5542 183.181 23.9233 181.408 23.9233C179.51 23.9233 178.079 22.5542 178.079 20.314Z" fill="#8D8BA7"/>
<path d="M192.626 23.4877C192.626 26.848 194.556 28.6527 197.916 28.6527C199.005 28.6527 199.845 28.466 200.436 28.186V23.8299C200.032 23.9855 199.658 24.0166 199.378 24.0166C198.134 24.0166 198.04 23.2387 198.04 22.492V6.03235H192.626V23.4877Z" fill="#8D8BA7"/>
<path d="M207.13 28.6527C209.246 28.6527 210.646 27.7192 211.268 26.5058V28.2793H216.277V18.2604C216.277 14.2777 213.539 11.8819 208.903 11.8819C205.761 11.8819 203.178 13.2509 201.809 14.9934L204.641 18.3849C205.481 17.4203 206.787 16.4869 208.623 16.4869C209.961 16.4869 211.112 16.9536 211.112 18.2915V18.3226L206.974 19.1316C203.614 19.8472 201.747 21.4652 201.747 23.8299C201.747 26.6613 204.018 28.6527 207.13 28.6527ZM211.112 21.5897V21.8386C211.112 23.6121 210.117 24.7634 208.405 24.7634C207.441 24.7634 206.912 24.2655 206.912 23.4877C206.912 22.7098 207.534 22.3053 208.499 22.0875L211.112 21.5897Z" fill="#8D8BA7"/>
<path d="M218.206 16.4557H220.26V22.8654C220.26 26.5991 222.376 28.6527 225.861 28.6527C227.447 28.6527 228.661 28.3104 229.501 27.9059V23.3321C228.848 23.7988 228.07 23.9233 227.416 23.9233C226.421 23.9233 225.674 23.3321 225.674 21.963V16.4557H229.065V12.2553H225.674V7.93034H220.415V12.2553H218.206V16.4557Z" fill="#8D8BA7"/>
<path d="M246.145 21.5585C246.301 21.0607 246.456 20.0962 246.456 19.2561C246.456 14.8689 243.345 11.8819 238.771 11.8819C234.041 11.8819 230.432 15.5534 230.432 20.2828C230.432 25.0123 233.948 28.6527 239.424 28.6527C242.131 28.6527 244.247 27.9682 246.363 26.0702L243.625 22.6476C242.847 23.3943 241.571 24.1411 239.829 24.1411C237.993 24.1411 236.251 23.3632 236.002 21.5585H246.145ZM238.646 16.1757C240.047 16.1757 241.136 17.0469 241.229 18.416V18.4471H235.908C236.002 16.9847 237.246 16.1757 238.646 16.1757Z" fill="#8D8BA7"/>
<path d="M254.656 28.6527C258.638 28.6527 261.314 26.4435 261.314 23.581C261.314 20.4073 258.856 19.5672 256.336 18.5715C254.064 17.607 253.1 17.4514 253.1 16.8602C253.1 16.2691 253.816 15.9268 254.656 15.9268C256.149 15.9268 256.989 16.6424 257.518 17.5448L260.879 15.1178C259.883 13.2198 257.549 11.8819 254.811 11.8819C251.202 11.8819 248.184 13.6243 248.184 16.8291C248.184 19.4116 249.957 20.6873 253.1 21.8075C255.309 22.5853 256.398 22.8654 256.398 23.7055C256.398 24.2966 255.807 24.6078 254.718 24.6078C253.1 24.6078 251.855 23.6121 251.109 22.3364L247.655 24.9812C248.993 27.3459 251.669 28.6527 254.656 28.6527Z" fill="#8D8BA7"/>
<path fill-rule="evenodd" clip-rule="evenodd" d="M29.5229 10.4791C32.1887 10.4791 34.3498 8.31801 34.3498 5.6522C34.3498 2.98638 32.1887 0.825317 29.5229 0.825317C26.8571 0.825317 24.696 2.98638 24.696 5.6522C24.696 8.31801 26.8571 10.4791 29.5229 10.4791Z" fill="#8D8BA7"/>
<path fill-rule="evenodd" clip-rule="evenodd" d="M29.5226 22.6021C32.1884 22.6021 34.3494 20.4411 34.3494 17.7753C34.3494 15.1096 32.1884 12.9486 29.5226 12.9486C26.8567 12.9486 24.6957 15.1096 24.6957 17.7753C24.6957 20.4411 26.8567 22.6021 29.5226 22.6021Z" fill="#8D8BA7"/>
<path fill-rule="evenodd" clip-rule="evenodd" d="M29.5226 35.1746C32.1884 35.1746 34.3494 33.0136 34.3494 30.3478C34.3494 27.6819 32.1884 25.5209 29.5226 25.5209C26.8567 25.5209 24.6957 27.6819 24.6957 30.3478C24.6957 33.0136 26.8567 35.1746 29.5226 35.1746Z" fill="#8D8BA7"/>
<path fill-rule="evenodd" clip-rule="evenodd" d="M16.9506 22.6021C19.6164 22.6021 21.7774 20.4411 21.7774 17.7753C21.7774 15.1096 19.6164 12.9486 16.9506 12.9486C14.2849 12.9486 12.1239 15.1096 12.1239 17.7753C12.1239 20.4411 14.2849 22.6021 16.9506 22.6021Z" fill="#8D8BA7"/>
<path fill-rule="evenodd" clip-rule="evenodd" d="M16.9504 35.1746C19.6162 35.1746 21.7772 33.0136 21.7772 30.3478C21.7772 27.6819 19.6162 25.5209 16.9504 25.5209C14.2847 25.5209 12.1237 27.6819 12.1237 30.3478C12.1237 33.0136 14.2847 35.1746 16.9504 35.1746Z" fill="#8D8BA7"/>
<path fill-rule="evenodd" clip-rule="evenodd" d="M4.82676 35.1746C7.49257 35.1746 9.65364 33.0136 9.65364 30.3478C9.65364 27.6819 7.49257 25.5209 4.82676 25.5209C2.16094 25.5209 -0.00012207 27.6819 -0.00012207 30.3478C-0.00012207 33.0136 2.16094 35.1746 4.82676 35.1746Z" fill="#8D8BA7"/>
</svg>
