<svg width="148" height="36" viewBox="0 0 148 36" fill="none" xmlns="http://www.w3.org/2000/svg">
<path d="M16.6634 0.156511C14.7619 0.37188 11.9097 1.26649 10.2869 2.16111C5.92671 4.53017 2.97619 8.22459 1.50092 13.145C1.20587 14.1058 0.861644 16.7234 0.878036 17.9494C0.878036 19.0262 1.20587 21.6603 1.40257 22.2899C1.50092 22.5881 1.71402 23.3005 1.89433 23.8472C2.18938 24.7749 3.61547 27.6907 3.86135 27.8895C3.91052 27.9392 4.17279 28.2705 4.41867 28.6516C5.02516 29.5628 6.61517 31.1863 7.81177 32.1141C8.72972 32.8264 11.3196 34.334 11.6475 34.3506C11.7294 34.3506 11.7458 33.721 11.6966 32.8927C11.5819 31.0538 11.9261 28.5522 12.6638 26.0009C12.7949 25.5701 12.8932 25.0069 12.8932 24.7584C12.8932 24.5099 12.9588 24.2448 13.0408 24.1619C13.1227 24.0625 13.2702 23.5821 13.3522 23.0851C13.4506 22.5881 13.6145 21.826 13.7292 21.3953C13.8931 20.7492 13.8767 20.5007 13.6473 19.8049C13.3194 18.7446 13.303 17.0216 13.6309 16.1933C14.4013 14.2218 15.2537 13.4763 16.6961 13.4763C18.4337 13.4763 19.2697 14.8016 18.9418 17.0216C18.7943 18.0322 18.3845 19.6226 18.1222 20.1196C18.0567 20.2687 17.9419 20.6829 17.8927 21.0308C17.8272 21.3953 17.696 21.9089 17.6141 22.1905C17.3846 22.8366 17.8272 24.0957 18.4173 24.5761C18.9746 25.0234 20.1384 25.156 21.2039 24.9075C21.9579 24.7418 22.2694 24.543 23.0562 23.7809C23.9905 22.8532 24.6953 21.7763 24.6953 21.2627C24.6953 21.1136 24.7773 20.9148 24.8757 20.8154C25.3346 20.3516 25.5805 16.74 25.2363 15.2158C24.8593 13.5426 23.6954 11.9024 22.1874 10.9416C20.6793 9.96411 17.5649 9.68248 15.6471 10.3452C14.3029 10.809 13.1063 11.5877 12.3359 12.4988C11.6475 13.3106 10.9262 14.636 10.9262 15.0999C10.9262 15.2655 10.8443 15.4809 10.7459 15.5803C10.6476 15.6797 10.5328 16.3092 10.4836 16.9885C10.4017 17.9991 10.4672 18.4629 10.7623 19.4569C10.959 20.1362 11.3196 20.9314 11.5327 21.2296C11.9753 21.826 11.9753 22.058 11.5655 23.6484C11.4508 24.0791 11.2541 24.4767 11.1393 24.5264C10.1066 24.924 8.00848 22.4224 7.30363 19.9374C7.04136 18.9931 7.02497 15.63 7.28724 14.636C7.40198 14.2218 7.59868 13.6585 7.72981 13.3603C7.86095 13.0787 7.97569 12.7971 7.97569 12.7308C7.97569 12.6645 8.30353 12.1012 8.71332 11.4883C10.8443 8.24116 14.3029 6.5182 18.6795 6.5182C19.6794 6.5182 20.7121 6.58447 20.9908 6.6673C23.2529 7.37968 23.8594 7.61162 24.7445 8.14176C26.4657 9.18547 27.7114 10.6102 28.9572 12.9959C29.0392 13.145 29.1539 13.5426 29.2031 13.8739C29.2687 14.2052 29.3834 14.52 29.4654 14.5697C29.5473 14.6194 29.6129 15.6963 29.6129 16.9719C29.6129 19.2747 29.449 20.2025 28.7605 22.0911C27.9901 24.1619 26.0067 26.4482 24.2036 27.3428C23.1709 27.8398 21.2367 28.3865 20.4663 28.3865C19.4336 28.3865 17.401 27.525 16.8437 26.8292C16.5814 26.5144 16.3355 26.6304 16.3355 27.0777C16.3355 27.2434 16.27 27.525 16.1716 27.6907C16.0896 27.8398 15.9421 28.3037 15.8602 28.7178C15.3848 30.9047 14.7127 32.6773 13.68 34.334C13.3686 34.8476 13.6309 35.1458 14.4832 35.2618C14.9094 35.328 15.4831 35.444 15.7454 35.5268C16.4011 35.7422 19.9581 35.7091 21.1547 35.4937C22.2366 35.2949 23.9905 34.7979 24.7773 34.4666C29.7276 32.4123 33.4814 28.2374 35.1041 22.9194C35.9729 20.0865 36.0221 16.7897 35.2353 13.4763C34.973 12.3994 34.8911 12.1509 34.1862 10.4943C33.1699 8.07549 30.8751 5.24255 28.5474 3.50302C26.5476 2.012 24.5806 1.15052 21.5153 0.405014C20.663 0.206211 17.6305 0.0405422 16.6634 0.156511ZM60.3803 6.13716C59.741 6.23656 58.7248 7.29684 58.4625 8.12519C58.1838 9.03637 58.4625 10.0138 59.2493 10.7759C60.9868 12.4823 64.0029 10.8753 63.6259 8.42339C63.3964 6.8661 61.9867 5.87209 60.3803 6.13716ZM42.5132 7.11461C42.3657 7.28028 42.3657 27.26 42.5296 27.4919C42.6116 27.6244 43.3164 27.6741 44.6934 27.6576L46.7423 27.641L46.8243 24.2779C46.8899 21.5444 46.9554 20.8817 47.1521 20.7657C47.2833 20.6829 48.3979 20.6001 49.6273 20.6001C52.3156 20.6001 53.4466 20.4013 54.676 19.7386C56.2824 18.8605 57.2167 17.6015 57.7249 15.5969C58.0363 14.3378 58.0363 13.4266 57.7085 12.1344C57.4134 10.9747 57.2823 10.6931 56.5774 9.74874C55.7087 8.5725 54.8235 7.92639 53.381 7.41281C52.5778 7.14774 51.9058 7.09804 47.5619 7.04834C44.8573 7.01521 42.5788 7.04834 42.5132 7.11461ZM51.5124 11.2398C52.6106 11.5877 53.1515 12.0847 53.3974 12.9793C53.7089 14.1555 53.4794 15.249 52.7909 15.9116C52.0369 16.624 51.3648 16.7897 49.1683 16.7897C47.7258 16.7897 47.2833 16.74 47.0866 16.5246C46.8735 16.3258 46.8243 15.8454 46.8243 13.9567C46.8243 10.9747 46.8079 10.9913 49.0864 10.9913C50.0699 10.9913 51.0206 11.0907 51.5124 11.2398ZM80.2636 10.2623C80.2636 11.4054 80.1816 12.4823 80.0997 12.6645C79.9849 12.8799 79.7554 12.9793 79.362 12.9793C79.067 12.9793 78.7883 13.0456 78.7556 13.145C78.7392 13.2278 78.7392 13.8076 78.7883 14.4206C78.8703 15.514 78.8867 15.5306 79.3784 15.6466C79.6571 15.6963 79.9685 15.7957 80.0669 15.8619C80.2144 15.9448 80.2636 17.2535 80.2636 20.5669C80.2636 25.0234 80.28 25.1891 80.6406 25.8518C81.3946 27.26 82.5749 27.757 84.9681 27.6907L86.5744 27.641L86.6236 26.034L86.6728 24.4105H86.263C85.6401 24.4105 84.7222 23.9134 84.6238 23.5158C84.5746 23.317 84.5255 21.5609 84.5255 19.5895C84.5255 16.8725 84.5746 15.9613 84.7386 15.8288C84.8533 15.7294 85.3123 15.63 85.7549 15.5969L86.5744 15.5472V13.0621L85.6729 13.0124C85.1811 12.9793 84.7222 12.8633 84.6566 12.7639C84.591 12.648 84.5255 11.5711 84.5255 10.3617V8.17489H80.2636V10.2623ZM141.192 8.27429C141.126 8.34056 141.077 9.38427 141.077 10.5937C141.077 12.9462 141.061 12.9793 140.159 12.9793C139.75 12.9793 139.75 12.9959 139.799 14.2549C139.848 15.514 139.864 15.5472 140.29 15.5969C140.52 15.63 140.799 15.746 140.881 15.8454C140.979 15.9613 141.077 17.9659 141.126 20.5172C141.176 22.9691 141.258 25.2057 141.323 25.4707C141.52 26.1997 142.536 27.1274 143.503 27.4422C144.585 27.8067 147.339 27.8398 147.618 27.4919C147.749 27.3428 147.798 26.7464 147.765 25.8849L147.716 24.4933L147.142 24.3939C146.519 24.2945 145.814 23.9631 145.634 23.6815C145.569 23.5821 145.503 21.7763 145.503 19.6723C145.503 15.3484 145.405 15.63 146.831 15.63C147.765 15.63 147.847 15.4643 147.765 13.9567L147.716 13.0621L146.65 12.9793L145.585 12.8965L145.503 10.5771L145.421 8.25772L143.356 8.20802C142.225 8.19146 141.258 8.22459 141.192 8.27429ZM72.1497 12.5817C71.3465 12.7971 70.4121 13.3438 69.7892 13.9899C69.0352 14.7851 68.8385 14.7354 68.7565 13.7248L68.7074 13.0621H64.6094V27.641L66.6748 27.6741C68.7074 27.7238 68.7565 27.7073 68.8549 27.3428C68.9041 27.144 68.9532 25.04 68.9532 22.6544C68.9532 17.9328 68.9696 17.8003 69.9368 16.8725C70.3629 16.4583 70.5924 16.3755 71.5104 16.3258L72.5758 16.2595L73.2151 16.9388C73.9691 17.734 73.8872 16.9719 73.9528 23.8306C73.9691 25.653 73.9855 27.26 74.0019 27.4256C74.0347 27.6576 74.297 27.6907 76.1329 27.6576L78.2146 27.641V16.011L77.7393 15.0667C76.9197 13.4266 75.6575 12.648 73.7233 12.5486C73.0348 12.532 72.33 12.532 72.1497 12.5817ZM92.6394 12.5817C90.8691 13.0621 90.0167 13.5426 88.9185 14.636C87.4432 16.1436 86.7712 17.8997 86.7712 20.2687C86.7875 24.427 89.3611 27.5085 93.164 27.8729C96.4095 28.1877 98.9175 27.2268 100.524 25.0566C100.753 24.7418 101.245 23.7312 101.245 23.549C101.245 23.4827 100.294 23.4164 99.147 23.4164H97.0488L96.5571 23.93C95.9834 24.5264 95.1802 24.9075 94.4425 24.9075C93.7049 24.9075 92.5739 24.3773 92.0493 23.814C91.6559 23.3667 91.0822 22.0745 91.0822 21.6272C91.0822 21.4781 92.2788 21.4284 96.1309 21.4284C98.9011 21.4284 101.245 21.3621 101.36 21.2959C101.606 21.1302 101.376 18.4961 101.016 17.5352C100.278 15.5306 98.8847 13.8408 97.475 13.2444C97.0652 13.0787 96.5898 12.8633 96.4259 12.7805C96.0817 12.5983 93.164 12.4491 92.6394 12.5817ZM95.8358 16.2098C96.4751 16.6571 97.0324 17.7174 96.9505 18.3138C96.9013 18.6949 96.8685 18.6949 94.0983 18.7446C90.9019 18.7943 90.8855 18.7777 91.3937 17.5849C91.7543 16.7565 92.4755 16.011 93.1476 15.7957C93.918 15.5472 95.1638 15.746 95.8358 16.2098ZM116.899 12.5817C114.998 13.0953 113.67 13.9402 112.637 15.249C112.228 15.7791 111.9 16.2761 111.9 16.3755C111.9 16.4583 111.785 16.7565 111.638 17.0382C111.49 17.3032 111.277 18.1316 111.162 18.8771C110.588 22.4224 112.162 25.7358 115.113 27.2268L116.244 27.8067H118.62C121.079 27.8067 121.292 27.757 122.8 26.9452C123.899 26.3488 125.702 24.0294 125.423 23.5655C125.357 23.4827 124.423 23.4164 123.325 23.4164H121.309L120.899 23.8969C119.26 25.7689 116.194 24.8081 115.539 22.2071C115.44 21.8591 115.44 21.5609 115.522 21.4947C115.604 21.445 117.948 21.4118 120.751 21.4284C124.751 21.4284 125.833 21.3953 125.849 21.2296C125.997 19.1587 125.013 16.0939 123.784 14.7685C123.095 14.023 121.899 13.1947 121.309 13.0456C121.046 12.9793 120.751 12.8633 120.637 12.7805C120.407 12.5983 117.407 12.4491 116.899 12.5817ZM119.456 15.8122C120.194 16.0773 121.046 17.005 121.178 17.7174C121.374 18.7943 121.391 18.7943 118.342 18.7446C115.604 18.6949 115.588 18.6949 115.539 18.3138C115.473 17.85 116.047 16.7068 116.539 16.2761C117.244 15.6797 118.473 15.4809 119.456 15.8122ZM131.16 12.5817C127.8 13.3935 126.587 14.6028 126.57 17.121C126.57 19.838 127.915 20.9811 131.898 21.6935C134.635 22.1739 135.422 22.6047 135.389 23.6484C135.373 24.3939 134.865 24.8743 133.848 25.0897C132.57 25.3713 131.57 25.0566 130.767 24.1454L130.128 23.4164H128.144C126.538 23.4164 126.161 23.4661 126.161 23.6484C126.161 24.1288 126.816 25.3879 127.357 26.0174C127.865 26.5641 128.259 26.8292 129.8 27.5747C129.947 27.6576 130.75 27.7901 131.554 27.8895C133.045 28.0717 135.635 27.9061 136.291 27.5747C136.438 27.5085 136.865 27.2931 137.225 27.1274C138.159 26.6801 139.045 25.6695 139.372 24.7087C139.733 23.6152 139.635 22.0911 139.127 21.0308C138.52 19.7883 136.914 18.8937 134.521 18.4629C131.439 17.9162 131.39 17.8997 130.898 17.4192C130.308 16.8062 130.308 16.5909 130.898 15.9282C131.373 15.3981 131.406 15.3815 132.717 15.3815C134.029 15.3815 134.062 15.3981 134.537 15.9282C134.799 16.2264 135.012 16.5743 135.012 16.7068C135.012 16.9056 135.357 16.9553 137.061 16.9553C139.323 16.9553 139.258 17.005 138.864 15.8288C138.143 13.7414 136.291 12.6811 133.209 12.5651C132.258 12.532 131.34 12.532 131.16 12.5817ZM109.359 12.9296C108.638 13.1781 107.638 14.0064 107.326 14.6028C107.015 15.1993 106.736 14.9508 106.654 13.9567L106.572 13.0621H102.475L102.425 20.0202C102.409 23.8472 102.425 27.144 102.475 27.3594C102.556 27.7238 102.606 27.7238 104.573 27.6907C105.704 27.6741 106.622 27.5747 106.687 27.4753C106.753 27.3925 106.818 25.6364 106.818 23.5821C106.818 20.335 106.851 19.7552 107.13 19.0262C107.704 17.5186 108.933 16.624 110.474 16.624C110.9 16.624 111.08 16.5412 111.129 16.3258C111.244 15.8454 111.261 13.6088 111.162 13.1118C111.064 12.7142 110.982 12.648 110.539 12.6645C110.244 12.6811 109.72 12.7971 109.359 12.9296ZM58.8723 13.1781C58.8231 13.2941 58.8067 16.5577 58.8231 20.4344L58.8723 27.4753L60.8229 27.5582C62.0031 27.6079 62.8555 27.5747 62.9866 27.4753C63.1669 27.3428 63.2161 25.9346 63.2161 20.3019C63.2325 16.4583 63.1833 13.2278 63.1341 13.145C62.9702 12.8965 58.9542 12.9296 58.8723 13.1781Z" fill="#767494"/>
</svg>
