<svg width="114" height="38" viewBox="0 0 114 38" fill="none" xmlns="http://www.w3.org/2000/svg">
<path d="M108.454 7.0214H103.507V0.0948486H92.6431L87.6471 7.0214H78.7693L75.8007 9.98992V7.0214H68.8742V0.0948486H47.105V7.0214H16.4798L11.4828 0.0948486H0.598175V23.843L14.4513 37.6961H28.3044V33.7381L32.2624 37.6961H58.9791V33.7381L62.9371 37.6961H75.8007V33.7381L79.7588 37.6961H104.496L113.402 28.7906V11.9689L108.454 7.0214ZM17.4198 16.9165H10.4932V18.8955H17.4198V26.8115H6.53522L2.57719 22.8535V2.07386H10.4932V9.00041H17.4198V16.9165ZM47.105 26.8115H23.3568L19.3988 22.8535V9.00041H27.3149V18.8955H29.2939V9.00041H37.2099V18.8955H39.189V9.00041H47.105V26.8115ZM57.0001 26.8115H49.084V9.00041H57.0001V26.8115ZM57.0001 7.0214H49.084V2.07386H57.0001V7.0214ZM73.8217 16.9165H66.8952V18.8955H73.8217V26.8115H62.9371L58.9791 22.8535V2.07386H66.8952V9.00041H73.8217V16.9165ZM91.6328 16.9165H83.7168V18.8955H91.6328V26.8115H79.7588L75.8007 22.8535V12.9584L79.7588 9.00041H91.6328V16.9165ZM111.423 26.8115H103.507V16.9165H101.528V26.8115H93.6119V2.07386H101.528V9.00041H107.465L111.423 12.9584V26.8115Z" fill="#767494"/>
</svg>
