<svg width="140" height="36" viewBox="0 0 141 36" fill="none" xmlns="http://www.w3.org/2000/svg">
<path d="M45.8052 14.0486C45.8052 11.5303 43.3563 8.85567 39.1186 8.85567C34.3599 8.85567 29.1323 12.3466 28.3333 19.311C27.5171 26.3448 31.8937 29.471 36.3051 29.471C40.7164 29.471 43.0263 27.7516 45.3883 25.4591C43.3563 22.9061 40.7338 24.0871 40.2302 24.3476C39.6744 24.6255 38.9623 25.0075 37.5034 25.0075C35.8014 25.0075 34.0647 24.2434 34.0647 21.0651C44.9715 19.9883 45.8052 16.5669 45.8052 14.0486ZM40.4038 14.4654C40.3344 15.2469 40.0217 16.5842 34.4988 17.3311C35.6625 13.1976 37.8855 12.885 38.9102 12.885C39.8654 12.885 40.4733 13.6318 40.4038 14.4654ZM21.9247 15.1427C21.9247 15.1427 19.5801 22.5066 19.389 23.1145C19.3196 22.4892 17.6002 9.27249 17.6002 9.27249C13.6056 9.27249 11.4694 12.1208 10.3405 15.1254C10.3405 15.1254 7.49222 22.5066 7.24907 23.1318C7.23171 22.5587 6.81488 15.2122 6.81488 15.2122C6.57174 11.5303 3.20242 9.28986 0.475708 9.28986L3.77555 29.3147C7.96115 29.2973 10.2189 26.4664 11.3999 23.4618C11.3999 23.4618 13.9182 16.949 14.0224 16.6537C14.0398 16.9316 15.8287 29.3147 15.8287 29.3147C20.0316 29.3147 22.2894 26.6575 23.5052 23.7571L29.3928 9.28986C25.2419 9.28986 23.0536 12.1208 21.9247 15.1427ZM61.2276 8.82093C58.6398 8.82093 56.6599 10.2277 54.9926 12.2945V12.2771L56.4862 0.241333C53.0475 0.241333 50.2513 3.22856 49.7129 7.67467L47.1077 29.1584C49.0876 29.1584 51.1891 28.5853 52.318 27.1264C53.3253 28.429 54.8363 29.471 57.0767 29.471C62.8775 29.471 66.8547 22.7324 66.8547 16.4106C66.82 10.6445 64.0238 8.82093 61.2276 8.82093ZM60.6892 19.1547C60.0813 22.6803 58.1188 25.077 56.2257 25.077C54.3153 25.077 53.499 24.226 53.499 24.226C53.8637 21.1346 54.0895 19.2415 54.7842 17.6089C55.4789 15.9764 57.1288 13.3712 58.8482 13.3712C60.5329 13.3712 61.2971 15.6117 60.6892 19.1547ZM81.3393 9.28986H77.2926L77.31 9.08144C77.5879 6.44157 78.2131 5.05216 80.2799 4.82638C81.6866 4.68744 82.3119 3.958 82.4682 3.15909C82.5898 2.53386 82.9718 0.362906 82.9718 0.362906C74.8438 0.310803 72.2908 3.81906 71.6308 9.16828L71.6134 9.28986H71.5266C70.2066 9.28986 68.7478 10.7835 68.5046 12.6765L68.4178 13.3712H71.1271L68.852 32.163L68.1573 35.5323C68.2441 35.5323 68.3483 35.5497 68.4352 35.5497C72.2387 35.4107 74.6701 32.4061 75.2085 28.0469L76.98 13.3712H78.2478C79.4983 13.3712 80.9572 12.1208 81.2177 10.0367L81.3393 9.28986ZM102.389 8.9425C97.7169 8.9425 93.3056 12.3813 91.9509 17.7826C90.5962 23.1839 92.6456 29.5752 99.5232 29.5752C106.383 29.5752 110.343 22.9234 110.343 17.3832C110.343 11.8776 106.609 8.9425 102.389 8.9425ZM104.282 18.981C104.039 21.4298 102.962 25.1465 100.009 25.1465C97.0396 25.1465 97.4564 20.8046 97.7517 18.7378C98.0643 16.5321 99.2974 13.3886 101.955 13.3886C104.334 13.3886 104.56 16.2195 104.282 18.981ZM133.425 15.1427C133.425 15.1427 131.08 22.5066 130.889 23.1145C130.82 22.4892 129.1 9.27249 129.1 9.27249C125.106 9.27249 122.969 12.1208 121.841 15.1254C121.841 15.1254 118.992 22.5066 118.749 23.1318C118.732 22.5587 118.315 15.2122 118.315 15.2122C118.072 11.5303 114.702 9.28986 111.976 9.28986L115.258 29.3147C119.444 29.2973 121.702 26.4664 122.883 23.4618C122.883 23.4618 125.401 16.949 125.488 16.6537C125.522 16.9316 127.294 29.3147 127.294 29.3147C131.497 29.3147 133.755 26.6575 134.97 23.7571L140.858 9.28986C136.725 9.28986 134.536 12.1208 133.425 15.1427ZM85.1602 0.362906L81.7561 27.8211L81.0614 31.2078C81.1482 31.2078 81.2524 31.2251 81.3393 31.2251C85.0038 31.173 87.609 27.96 88.0953 23.9134L90.0578 8.16096C90.6483 3.35013 87.7827 0.362906 85.1602 0.362906Z" fill="#767494"/>
</svg>
