<svg width="132" height="30" viewBox="0 0 132 30" fill="none" xmlns="http://www.w3.org/2000/svg">
<path d="M22.001 29.5594L13.4135 29.4006C10.633 29.3454 7.84572 29.4558 5.11987 28.8828C0.973037 28.0266 0.679274 23.8286 0.371848 20.3072C-0.0517168 15.3566 0.112244 10.3162 0.911552 5.40697C1.36244 2.65202 3.13868 1.00872 5.88502 0.829197C15.1556 0.180161 24.4877 0.256112 33.7378 0.559916C34.7148 0.587534 35.6985 0.739437 36.6618 0.912053C41.4167 1.75442 41.5328 6.51172 41.8402 10.5164C42.1477 14.5625 42.0178 18.6294 41.4303 22.6479C40.9589 25.9759 40.0572 28.7654 36.2519 29.0347C31.4834 29.3868 26.8242 29.6699 22.042 29.5801C22.042 29.5594 22.0147 29.5594 22.001 29.5594ZM16.9524 21.1357C20.5458 19.0505 24.071 16.9999 27.644 14.9285C24.0437 12.8433 20.5253 10.7926 16.9524 8.7212V21.1357Z" fill="#767494"/>
<path d="M110.72 25.7758C110.556 26.4525 110.412 26.9841 110.269 27.5503H106.908V1.34692H110.829V11.0135C111.034 10.7511 111.137 10.6407 111.225 10.5233C111.895 9.59115 112.762 8.98354 113.883 8.74878C115.666 8.39663 117.189 9.19068 117.729 10.9238C118.078 12.0009 118.303 13.154 118.33 14.2794C118.385 17.1725 118.344 20.0587 118.242 22.9518C118.201 23.8356 117.934 24.7401 117.599 25.5687C116.499 28.3029 112.906 28.7172 111.123 26.3489C111.014 26.2039 110.911 26.0451 110.72 25.7758ZM110.911 18.5673V23.3591C110.911 24.1394 111.321 24.6158 112.093 24.7953C112.851 24.9748 113.466 24.6779 113.774 23.9668C113.903 23.6699 114.033 23.3591 114.04 23.0484C114.115 20.1208 114.183 17.1932 114.204 14.2587C114.204 13.7133 114.074 13.1471 113.91 12.6154C113.603 11.6557 112.756 11.3726 111.922 11.9318C111.294 12.3599 110.911 12.9676 110.911 13.7754V18.5673ZM100.254 9.12163H104.36V27.5641H101.155C101.039 26.8667 100.923 26.1486 100.787 25.3063C100.568 25.6308 100.438 25.8379 100.302 26.0451C99.2358 27.5986 97.726 28.1303 95.9429 27.8472C94.4194 27.5986 93.504 26.411 93.299 24.4639C93.2375 23.8839 93.2102 23.297 93.2102 22.717C93.1965 18.4016 93.2102 14.0723 93.2102 9.75686V9.10782H97.3639V9.86043C97.3639 14.0309 97.3502 18.1944 97.3775 22.3649C97.3775 22.9587 97.439 23.5732 97.5415 24.167C97.6576 24.7746 98.0949 24.9956 98.6824 24.9541C99.632 24.8782 100.288 24.167 100.288 23.2141V9.93639C100.254 9.6671 100.254 9.41853 100.254 9.12163ZM71.9842 9.10782H76.1105V9.88805C76.1105 14.0378 76.0968 18.1806 76.1242 22.3165C76.1242 22.9103 76.1788 23.5249 76.3018 24.1049C76.4589 24.7884 76.8552 25.0094 77.5315 24.9196C78.4674 24.7884 79.0345 24.1325 79.0413 23.1727V9.964V9.13544H83.1471V27.5641H79.9567C79.8406 26.8805 79.7245 26.1763 79.5742 25.2856C79.3692 25.5963 79.2531 25.7758 79.1369 25.9622C78.0712 27.5434 76.5751 28.1234 74.751 27.8403C73.289 27.6194 72.3941 26.5284 72.1208 24.7401C72.0457 24.1808 71.991 23.6284 71.991 23.0691C71.9773 18.588 71.9773 14.0861 71.9773 9.60496L71.9842 9.10782ZM69.8663 18.9539C69.8527 19.5754 69.8117 20.1968 69.7775 20.8182C69.6204 22.6825 69.5453 25.327 68.056 26.6872C67.1063 27.5434 65.904 27.8541 64.6606 27.8955C64.1072 27.9093 63.547 27.9093 62.9937 27.8334C60.3771 27.4329 59.1611 26.266 58.7239 23.3591C58.2252 20.0035 58.1842 16.5925 58.7785 13.2368C59.3934 9.76377 61.5112 8.53473 64.8041 8.76258C67.8783 8.98353 69.2515 11.0204 69.6136 13.9204C69.8117 15.5844 69.9073 17.2692 69.8663 18.9539ZM65.6854 18.3187C65.6854 17.138 65.7127 15.9504 65.6717 14.7697C65.6444 14.0861 65.5556 13.3956 65.4121 12.719C65.2481 11.9388 64.7563 11.5659 64.1414 11.5797C63.5402 11.5935 63.1166 11.9664 62.898 12.6914C62.8229 12.9606 62.7409 13.2368 62.7409 13.5061C62.7409 15.3566 62.7272 17.2139 62.7136 19.0644C62.6999 20.7906 62.4813 22.5996 63.021 24.2499C63.185 24.7539 63.6085 25.0301 64.1619 25.0301C64.7016 25.0301 65.0568 24.7608 65.255 24.2775C65.4121 23.9046 65.5487 23.4972 65.5487 23.0968C65.5965 21.5087 65.6854 19.9137 65.6854 18.3187ZM52.6983 14.8456C53.0604 13.0573 53.402 11.3104 53.7777 9.55663C54.2491 7.3264 54.7752 5.09618 55.2397 2.85906C55.3559 2.31358 55.5745 2.18239 56.0868 2.1962C57.1867 2.23763 58.3071 2.21001 59.4822 2.21001C59.0996 3.63238 58.7239 4.98571 58.355 6.31832C57.1867 10.5026 56.0185 14.7006 54.864 18.8987C54.7752 19.2232 54.7342 19.5754 54.7342 19.9206C54.7205 22.213 54.7342 24.4984 54.7342 26.7908V27.5365H50.724C50.7103 27.3294 50.683 27.1222 50.683 26.9151C50.683 25.617 50.5805 24.312 50.6966 23.0277C50.9904 19.9413 50.0203 17.1035 49.2347 14.2311C48.1962 10.4335 47.1442 6.62212 46.1058 2.82453C46.0511 2.64501 46.0306 2.45168 45.976 2.23073H50.0681C50.9289 6.42189 51.7965 10.613 52.6983 14.8456ZM131.16 19.6582H124.247C124.322 21.0599 124.349 22.3925 124.492 23.7113C124.595 24.6296 125.094 25.0232 125.879 25.0301C126.699 25.0439 127.177 24.6296 127.369 23.7182C127.43 23.4213 127.471 23.1244 127.498 22.8206C127.526 22.5513 127.539 22.2613 127.56 21.8746C128.728 21.9368 129.869 22.0058 130.996 22.0542C131.652 24.022 130.47 26.5491 128.482 27.3294C126.918 27.9508 125.312 27.9508 123.714 27.4744C122.532 27.1222 121.651 26.3627 121.254 25.1958C120.885 24.1049 120.537 22.9656 120.462 21.8263C120.257 19.0161 120.182 16.1782 120.605 13.3611C120.68 12.8916 120.81 12.4428 120.954 11.9871C121.528 10.109 122.778 8.95592 124.711 8.76258C125.763 8.65901 126.849 8.70044 127.888 8.87996C129.568 9.17687 130.463 10.399 130.853 12.0009C131.03 12.7535 131.16 13.5268 131.188 14.2933C131.194 16.054 131.16 17.8008 131.16 19.6582ZM127.232 17.2347C127.232 15.8468 127.246 14.5418 127.218 13.2299C127.218 12.9192 127.102 12.5947 126.986 12.2978C126.754 11.7178 126.269 11.559 125.688 11.559C125.107 11.559 124.738 11.8559 124.595 12.3876C124.158 13.9825 124.301 15.6121 124.315 17.2485C125.36 17.2347 126.31 17.2347 127.232 17.2347Z" fill="#767494"/>
<path d="M86.3166 5.59358H82.2518V2.2655H94.3848V5.57286H90.3473V27.5368H86.3234L86.3166 5.59358Z" fill="#767494"/>
</svg>
